<svg width="63" height="49" viewBox="0 0 63 49" fill="none" xmlns="http://www.w3.org/2000/svg">
<g filter="url(#filter0_d_317_3)">
<path d="M9.33638 39.1591L9.67238 30.3751H12.3604L13.1284 35.4631C13.7684 35.5911 14.4724 35.7351 15.2404 35.8951C16.0404 36.0551 16.8244 36.2151 17.5924 36.3751C18.3924 36.5031 19.0964 36.6151 19.7044 36.7111C20.3124 36.7751 20.7444 36.8071 21.0004 36.8071C21.1604 36.8071 21.4644 36.6791 21.9124 36.4231C22.3924 36.1671 22.9044 35.8631 23.4484 35.5111C23.9924 35.1271 24.4724 34.7431 24.8884 34.3591C25.3364 33.9751 25.5764 33.6551 25.6084 33.3991C25.6724 33.0471 25.7204 32.6471 25.7524 32.1991C25.7844 31.7191 25.8004 31.2551 25.8004 30.8071C25.8004 30.3271 25.7684 29.9111 25.7044 29.5591C25.6724 29.2071 25.6084 28.9831 25.5124 28.8871C25.2564 28.5351 24.7284 28.0871 23.9284 27.5431C23.1604 26.9991 22.2644 26.4071 21.2404 25.7671C20.2484 25.0951 19.2404 24.4231 18.2164 23.7511C17.2244 23.0791 16.3444 22.4391 15.5764 21.8311C14.8404 21.2231 14.3444 20.6951 14.0884 20.2471C14.0244 20.0871 13.9444 19.7831 13.8484 19.3351C13.7844 18.8551 13.7364 18.3111 13.7044 17.7031C13.6724 17.0631 13.6404 16.4551 13.6084 15.8791C13.0324 16.3271 12.5844 16.7271 12.2644 17.0791C11.9764 17.3991 11.7684 17.7191 11.6404 18.0391C11.5444 18.3591 11.4964 18.7431 11.4964 19.1911C11.4964 19.7031 11.5284 20.1511 11.5924 20.5351C11.6884 20.8871 11.8004 21.2231 11.9284 21.5431C12.2484 22.1511 12.7444 22.6951 13.4164 23.1751C14.0884 23.6551 14.9844 24.2951 16.1044 25.0951C16.8404 25.6071 17.5924 26.1351 18.3604 26.6791C19.1284 27.1911 19.8484 27.7031 20.5204 28.2151C21.2244 28.6951 21.8164 29.1431 22.2964 29.5591C22.7764 29.9431 23.0804 30.2791 23.2084 30.5671C23.3684 30.8871 23.4324 31.2551 23.4004 31.6711C23.4004 32.0551 23.3684 32.3751 23.3044 32.6311C23.1764 32.9191 22.8404 33.2551 22.2964 33.6391C21.7844 33.9911 21.3044 34.2791 20.8564 34.5031C20.8884 34.1191 20.9044 33.7351 20.9044 33.3511C20.9364 32.9671 20.9364 32.6151 20.9044 32.2951C20.9044 31.9751 20.8404 31.7351 20.7124 31.5751C20.4564 31.2231 19.9284 30.7591 19.1284 30.1831C18.3604 29.6071 17.4644 28.9831 16.4404 28.3111C15.4164 27.6391 14.3924 26.9511 13.3684 26.2471C12.3764 25.5431 11.5124 24.8711 10.7764 24.2311C10.0724 23.5591 9.65638 22.9831 9.52838 22.5031C9.43238 22.1511 9.35238 21.7511 9.28838 21.3031C9.22438 20.8231 9.19238 20.3271 9.19238 19.8151C9.19238 19.3031 9.20838 18.8231 9.24038 18.3751C9.30438 17.8951 9.38438 17.4951 9.48038 17.1751C9.76838 16.6311 10.2324 16.0391 10.8724 15.3991C11.5124 14.7271 12.2324 14.0711 13.0324 13.4311C13.8644 12.7591 14.6964 12.1671 15.5284 11.6551C16.3924 11.1111 17.1924 10.6791 17.9284 10.3591C18.6964 10.0391 19.3204 9.87912 19.8004 9.87912C19.9924 9.87912 20.3284 9.89512 20.8084 9.92712C21.3204 9.92712 21.9124 9.95912 22.5844 10.0231C23.2884 10.0551 24.0084 10.1031 24.7444 10.1671C25.5124 10.2311 26.2484 10.3111 26.9524 10.4071C27.6564 10.5031 28.2804 10.5991 28.8244 10.6951L28.4404 18.9511H25.7524L25.0324 14.0551C24.5524 13.8311 23.9764 13.6391 23.3044 13.4791C22.6644 13.2871 22.0244 13.1431 21.3844 13.0471C20.7444 12.9511 20.2004 12.9031 19.7524 12.9031C19.4964 12.9031 19.2724 12.9351 19.0804 12.9991C18.8884 13.0311 18.7284 13.0791 18.6004 13.1431C18.5044 13.2071 18.4244 13.3031 18.3604 13.4311C18.2324 13.6551 18.1364 14.0071 18.0724 14.4871C18.0404 14.9671 18.0244 15.4791 18.0244 16.0231C18.0564 16.5351 18.1044 17.0151 18.1684 17.4631C18.2324 17.8791 18.3284 18.1511 18.4564 18.2791C18.8404 18.6951 19.3684 19.1431 20.0404 19.6231C20.7444 20.1031 21.5124 20.5991 22.3444 21.1111C23.2084 21.6231 24.0724 22.1671 24.9364 22.7431C25.8324 23.2871 26.6484 23.8631 27.3844 24.4711C28.1524 25.0471 28.7924 25.6231 29.3044 26.1991C29.4004 26.5831 29.4644 27.1271 29.4964 27.8311C29.5604 28.5351 29.5924 29.2871 29.5924 30.0871C29.5924 30.8551 29.5604 31.5751 29.4964 32.2471C29.4644 32.9191 29.4004 33.4151 29.3044 33.7351C29.0164 34.3431 28.5204 34.9991 27.8164 35.7031C27.1124 36.3751 26.3124 37.0151 25.4164 37.6231C24.5524 38.2311 23.7204 38.7271 22.9204 39.1111C22.1204 39.4631 21.4804 39.6391 21.0004 39.6391C20.3924 39.6391 19.5764 39.6231 18.5524 39.5911C17.5604 39.5591 16.4884 39.5111 15.3364 39.4471C14.1844 39.4151 13.0804 39.3671 12.0244 39.3031C10.9684 39.2711 10.0724 39.2231 9.33638 39.1591ZM39.0416 13.0951C38.8496 14.2471 38.6576 15.3671 38.4656 16.4551C38.3056 17.5111 38.1776 18.6631 38.0816 19.9111C37.9856 21.1271 37.9376 22.5671 37.9376 24.2311C37.9376 26.6311 38.0656 28.5351 38.3216 29.9431C38.6096 31.3511 38.9616 32.4231 39.3776 33.1591C39.7936 33.8951 40.2416 34.4071 40.7216 34.6951C41.2016 34.9831 41.6336 35.1911 42.0176 35.3191C42.7216 35.5431 43.7136 35.7031 44.9936 35.7991C46.3056 35.8631 47.4896 35.8791 48.5456 35.8471C48.6096 35.5911 48.6576 35.1911 48.6896 34.6471C48.7216 34.0711 48.7536 33.4471 48.7856 32.7751C48.8176 32.0711 48.8336 31.4151 48.8336 30.8071C48.8336 30.1671 48.8336 29.6871 48.8336 29.3671L45.2816 28.4071L45.9056 24.1351C46.8016 24.1671 47.7616 24.2631 48.7856 24.4231C49.8096 24.5511 50.7056 24.7271 51.4736 24.9511C52.2736 25.1431 52.7696 25.3831 52.9616 25.6711C52.9936 26.1831 53.0256 26.8551 53.0576 27.6871C53.0896 28.4871 53.1056 29.3511 53.1056 30.2791C53.1056 31.2071 53.0896 32.1031 53.0576 32.9671C53.0256 33.7991 52.9776 34.5351 52.9136 35.1751C52.8816 35.7831 52.8336 36.1671 52.7696 36.3271C52.5456 36.5191 52.1616 36.7591 51.6176 37.0471C51.1056 37.3351 50.5136 37.6391 49.8416 37.9591C49.2016 38.2471 48.5456 38.5191 47.8736 38.7751C47.2016 39.0311 46.5936 39.2391 46.0496 39.3991C45.5056 39.5591 45.1056 39.6391 44.8496 39.6391C44.3376 39.6391 43.6656 39.5751 42.8336 39.4471C42.0336 39.3191 41.1696 39.1271 40.2416 38.8711C39.3456 38.5831 38.4976 38.2311 37.6976 37.8151C36.8976 37.3671 36.2736 36.8551 35.8256 36.2791C35.2816 35.5431 34.8016 34.6951 34.3856 33.7351C34.0016 32.7751 33.6976 31.6551 33.4736 30.3751C33.2816 29.0951 33.1856 27.6071 33.1856 25.9111C33.1856 23.7031 33.3136 21.6871 33.5696 19.8631C33.8576 18.0391 34.2096 16.5831 34.6256 15.4951C34.9776 14.9831 35.4416 14.4391 36.0176 13.8631C36.5936 13.2551 37.1856 12.6951 37.7936 12.1831L39.0416 13.0951ZM41.0576 35.5591V14.1031C41.0576 13.7511 41.1856 13.1911 41.4416 12.4231C41.7296 11.6551 42.0336 10.8391 42.3536 9.97512H43.5536V32.8231C43.5536 33.0151 43.4736 33.3351 43.3136 33.7831C43.1536 34.2311 42.8976 34.8231 42.5456 35.5591H41.0576ZM51.8576 18.6151H49.2656L48.6896 13.7191C48.3056 13.6231 47.7456 13.5271 47.0096 13.4311C46.2736 13.3351 45.5536 13.2551 44.8496 13.1911C44.1776 13.1271 43.6656 13.0951 43.3136 13.0951C42.9936 13.0951 42.7056 13.1111 42.4496 13.1431C42.2256 13.1431 42.0336 13.1591 41.8736 13.1911L42.3536 9.97512C42.5136 9.91112 42.6416 9.87912 42.7376 9.87912C42.8336 9.84712 42.9456 9.83112 43.0736 9.83112C43.3296 9.83112 43.8096 9.84712 44.5136 9.87912C45.2496 9.91112 46.0816 9.95912 47.0096 10.0231C47.9696 10.0551 48.9296 10.1031 49.8896 10.1671C50.8816 10.1991 51.7296 10.2471 52.4336 10.3111L51.8576 18.6151Z" fill="white"/>
</g>
<defs>
<filter id="filter0_d_317_3" x="0.192383" y="0.831116" width="61.9132" height="47.808" filterUnits="userSpaceOnUse" color-interpolation-filters="sRGB">
<feFlood flood-opacity="0" result="BackgroundImageFix"/>
<feColorMatrix in="SourceAlpha" type="matrix" values="0 0 0 0 0 0 0 0 0 0 0 0 0 0 0 0 0 0 127 0" result="hardAlpha"/>
<feMorphology radius="4" operator="dilate" in="SourceAlpha" result="effect1_dropShadow_317_3"/>
<feOffset/>
<feGaussianBlur stdDeviation="2.5"/>
<feComposite in2="hardAlpha" operator="out"/>
<feColorMatrix type="matrix" values="0 0 0 0 0.513726 0 0 0 0 0.301961 0 0 0 0 0.721569 0 0 0 1 0"/>
<feBlend mode="normal" in2="BackgroundImageFix" result="effect1_dropShadow_317_3"/>
<feBlend mode="normal" in="SourceGraphic" in2="effect1_dropShadow_317_3" result="shape"/>
</filter>
</defs>
</svg>
