<svg width="30" height="24" viewBox="0 0 30 24" fill="none" xmlns="http://www.w3.org/2000/svg">
<g clip-path="url(#clip0_332_228)">
<path fill-rule="evenodd" clip-rule="evenodd" d="M0 0.14209H29.1429V23.0433H0V0.14209Z" fill="#229E45"/>
<path fill-rule="evenodd" clip-rule="evenodd" d="M14.6358 20.944L28.3648 11.607L14.5539 2.24133L0.779297 11.626L14.6358 20.944Z" fill="#F8E509"/>
<path fill-rule="evenodd" clip-rule="evenodd" d="M20.6181 11.5927C20.6181 14.9468 18.018 17.6663 14.8078 17.6663C13.6606 17.6644 12.5397 17.3062 11.5868 16.6369C10.6339 15.9677 9.89173 15.0174 9.45418 13.9063C9.01662 12.7952 8.90331 11.5731 9.12854 10.3945C9.35378 9.21592 9.90747 8.13376 10.7196 7.28484C11.5317 6.43591 12.5659 5.85833 13.6912 5.6251C14.8166 5.39188 15.9827 5.51349 17.0422 5.97456C18.1016 6.43562 19.0068 7.21545 19.6433 8.21544C20.2798 9.21544 20.619 10.3907 20.6181 11.5927Z" fill="#2B49A3"/>
<path fill-rule="evenodd" clip-rule="evenodd" d="M12.9004 15.233L12.7182 15.1233L12.5361 15.2187L12.5771 15.004L12.4313 14.8418L12.6363 14.8179L12.7364 14.6271L12.8229 14.8275L13.0233 14.8656L12.873 15.0088M16.7891 16.2636L16.6115 16.1538L16.4294 16.2492L16.4658 16.0345L16.3246 15.8771L16.5296 15.8532L16.6252 15.6576L16.7163 15.858L16.9166 15.8962L16.7618 16.0441M15.1134 14.6128L14.9586 14.5173L14.7992 14.6032L14.8356 14.4172L14.7081 14.2788L14.8903 14.2597L14.9722 14.0879L15.0451 14.2645L15.2227 14.2979L15.0861 14.4267M19.0477 14.0212L18.8929 13.9257L18.7335 14.0116L18.7699 13.8255L18.647 13.6919L18.8246 13.6729L18.9065 13.5059L18.9794 13.6776L19.1524 13.711L19.0204 13.8351M15.0451 12.7854L14.8629 12.6805L14.6808 12.7759L14.7172 12.5564L14.5761 12.399L14.781 12.3751L14.8766 12.1795L14.9677 12.3799L15.168 12.4181L15.0132 12.5707M10.2502 10.9009L10.068 10.7959L9.88589 10.8913L9.93143 10.6719L9.78116 10.5144L9.99062 10.4906L10.0817 10.2949L10.1728 10.4953L10.3731 10.5335L10.2229 10.6814M10.8285 13.4105L10.6463 13.3007L10.4642 13.3961L10.5052 13.1814L10.3595 13.024L10.5644 12.9954L10.66 12.8045L10.7511 13.0049L10.9514 13.0431L10.8012 13.191M16.8119 9.98005L16.6479 9.88463L16.484 9.97051L16.5204 9.77966L16.3929 9.63653L16.5751 9.61268L16.6616 9.44092L16.739 9.62222L16.9212 9.65562L16.7846 9.78444M16.4795 11.6118L16.3565 11.5354L16.2245 11.6022L16.2518 11.4495L16.1516 11.3398L16.2973 11.3207L16.3656 11.1871L16.4248 11.3303L16.5614 11.3541L16.4613 11.4591M9.98607 13.8637L9.86313 13.7921L9.74018 13.8542L9.7675 13.711L9.67188 13.6061L9.80848 13.587L9.87223 13.4582L9.93143 13.5918L10.068 13.6204L9.9633 13.7158M19.0796 14.4458L18.9794 14.3933L18.8792 14.441L18.902 14.3313L18.8246 14.2549L18.9338 14.2406L18.9885 14.1452L19.034 14.2406L19.1479 14.2645L19.0613 14.336" fill="#FFFFEF"/>
<path fill-rule="evenodd" clip-rule="evenodd" d="M9.98607 13.8637L9.86313 13.7922L9.74018 13.8542L9.7675 13.7111L9.67188 13.6061L9.80848 13.587L9.87223 13.4582L9.93143 13.5918L10.068 13.6204L9.9633 13.7158" fill="#FFFFEF"/>
<path fill-rule="evenodd" clip-rule="evenodd" d="M9.98607 13.8637L9.86313 13.7921L9.74018 13.8542L9.7675 13.711L9.67188 13.6061L9.80848 13.587L9.87223 13.4582L9.93143 13.5917L10.068 13.6204L9.9633 13.7158M11.8895 13.8589L11.7711 13.7921L11.6481 13.8542L11.6754 13.711L11.5798 13.6061L11.7164 13.587L11.7802 13.4582L11.8394 13.5917L11.976 13.6156L11.8713 13.7158M11.6527 14.5269L11.5343 14.4553L11.4113 14.5221L11.4387 14.379L11.343 14.2692L11.4796 14.2502L11.5434 14.1213L11.6026 14.2549L11.7392 14.2835L11.6345 14.379M15.6143 13.3198L15.4959 13.2435L15.3684 13.3102L15.3957 13.1671L15.3046 13.0574L15.4413 13.0431L15.505 12.9143L15.5596 13.0478L15.6963 13.0717L15.5961 13.1719M14.4531 13.315L14.3302 13.2435L14.2072 13.3102L14.2346 13.1671L14.1435 13.0574L14.2801 13.0431L14.3438 12.9095L14.3985 13.0478L14.5351 13.0717L14.4349 13.1719M11.3021 12.8952L11.2246 12.8475L11.1472 12.8856L11.1654 12.795L11.1062 12.7282L11.1928 12.7186L11.2292 12.6375L11.2656 12.7234L11.3521 12.7377L11.2884 12.7997M18.9293 14.9658L18.8109 14.8942L18.6879 14.961L18.7153 14.8179L18.6196 14.7082L18.7562 14.6891L18.82 14.5603L18.8792 14.6939L19.0158 14.7225L18.9111 14.8179M17.9639 15.1042L17.8637 15.0374L17.759 15.0946L17.7818 14.9706L17.7044 14.8847L17.8182 14.8704L17.8729 14.7607L17.9184 14.8752L18.0322 14.8942L17.9457 14.9801M18.4193 15.0899L18.3282 15.0326L18.2326 15.0803L18.2508 14.9706L18.1779 14.8895L18.2827 14.8752L18.3328 14.7797L18.3783 14.8752L18.483 14.899L18.4056 14.9754M19.7307 13.8875L19.6396 13.8398L19.5486 13.8875L19.5713 13.7778L19.4985 13.6967L19.6032 13.6824L19.6488 13.587L19.6943 13.6872L19.7899 13.7062L19.7171 13.7826M17.9503 15.7769L17.8364 15.7101L17.7135 15.7674L17.7408 15.6338L17.6497 15.5383L17.7863 15.524L17.8455 15.4048L17.9002 15.5288L18.0368 15.5527L17.9321 15.6433M17.9594 16.3208L17.8501 16.254L17.7408 16.316L17.7681 16.1824L17.6816 16.087L17.8046 16.0679L17.8592 15.9487L17.9093 16.0727L18.0322 16.0966L17.9412 16.192M17.076 15.0899L16.9895 15.0326L16.8984 15.0803L16.9166 14.9754L16.8483 14.8942L16.9485 14.8847L16.994 14.7893L17.0396 14.8847L17.1397 14.9038L17.0669 14.9801M16.2563 15.0899L16.1653 15.0326L16.0742 15.0803L16.097 14.9754L16.0241 14.8942L16.1288 14.8847L16.1744 14.7893L16.2199 14.8847L16.3155 14.9038L16.2427 14.9801M14.8584 13.8064L14.7673 13.754L14.6762 13.8017L14.699 13.6919L14.6262 13.6156L14.7263 13.6013L14.7719 13.5059L14.8174 13.6013L14.9176 13.6251L14.8447 13.6967M15.0132 16.4162L14.9404 16.3733L14.8584 16.4162L14.8766 16.3208L14.8174 16.254L14.9039 16.2445L14.9449 16.1634L14.9813 16.2492L15.0679 16.2635L15.0041 16.3256M12.9004 12.1938L12.7182 12.0841L12.5361 12.1795L12.5771 11.9648L12.4313 11.8074L12.6363 11.7787L12.7364 11.5879L12.8229 11.7883L13.0233 11.8264L12.873 11.9743" fill="#FFFFEF"/>
<path fill-rule="evenodd" clip-rule="evenodd" d="M20.2365 13.7778C20.3493 13.4711 20.4376 13.1551 20.5006 12.8331C17.4132 9.99433 13.9753 8.53916 9.63119 8.83973C9.47364 9.15916 9.34409 9.49291 9.24414 9.83689C14.3897 9.32161 18.1691 11.7071 20.2365 13.7778Z" fill="white"/>
<path d="M18.8512 12.1843L18.9559 12.2463C18.9403 12.2787 18.9354 12.3157 18.9422 12.3513C18.9529 12.3858 18.9757 12.4148 19.006 12.4324C19.0379 12.4562 19.0697 12.4706 19.0971 12.4658C19.1244 12.4658 19.1426 12.4515 19.1562 12.4324C19.1642 12.4197 19.1674 12.4044 19.1654 12.3894C19.1616 12.3718 19.1538 12.3554 19.1426 12.3417C19.1335 12.3274 19.1107 12.294 19.0743 12.2559C19.0368 12.2154 19.0088 12.1664 18.9923 12.1127C18.981 12.0721 18.9839 12.0286 19.0006 11.99C19.0173 11.9515 19.0467 11.9205 19.0834 11.9028C19.1165 11.8883 19.1531 11.885 19.1881 11.8933C19.2309 11.9036 19.2712 11.9231 19.3065 11.9505C19.3703 11.9982 19.4112 12.0459 19.4249 12.1032C19.4312 12.13 19.432 12.1578 19.4273 12.185C19.4226 12.2121 19.4125 12.2379 19.3976 12.2606L19.2883 12.1891C19.302 12.1604 19.3065 12.1318 19.2974 12.108C19.2929 12.0841 19.2746 12.0602 19.2428 12.0412C19.2194 12.0214 19.1908 12.0098 19.1608 12.0078C19.1525 12.0075 19.1444 12.0095 19.1372 12.0137C19.1299 12.0179 19.1239 12.0241 19.1198 12.0316C19.1107 12.0459 19.1107 12.0602 19.1153 12.0793C19.1198 12.0984 19.1426 12.1366 19.1881 12.1843C19.2337 12.232 19.261 12.2749 19.2792 12.3036C19.2955 12.3348 19.3028 12.3703 19.3004 12.4059C19.298 12.4414 19.2859 12.4754 19.2655 12.504C19.2442 12.5364 19.2141 12.5613 19.179 12.5755C19.1449 12.592 19.1067 12.597 19.0697 12.5898C19.0287 12.5803 18.9878 12.5612 18.9422 12.5278C18.8739 12.4801 18.8329 12.4276 18.8193 12.3704C18.8045 12.3054 18.8142 12.237 18.8466 12.1795L18.8512 12.1843ZM18.3229 11.8217L18.4368 11.8837C18.4227 11.9167 18.4195 11.9536 18.4277 11.9887C18.4393 12.0214 18.462 12.0486 18.4914 12.065C18.5279 12.0889 18.5552 12.0984 18.5825 12.0936C18.6098 12.0936 18.628 12.0793 18.6417 12.0555C18.6486 12.0441 18.6518 12.0307 18.6508 12.0173C18.6508 12.003 18.6417 11.9839 18.628 11.9696C18.6047 11.9401 18.5804 11.9115 18.5552 11.8837C18.5051 11.8312 18.4732 11.7883 18.4641 11.7501C18.4567 11.7256 18.4544 11.6996 18.4576 11.6741C18.4607 11.6485 18.4692 11.624 18.4823 11.6022C18.4996 11.5728 18.525 11.5495 18.5552 11.5354C18.5865 11.5203 18.6213 11.5153 18.6554 11.5211C18.6975 11.5285 18.7377 11.5448 18.7737 11.5688C18.8421 11.6165 18.883 11.6642 18.8967 11.7167C18.905 11.7435 18.9077 11.7719 18.9045 11.7999C18.9014 11.8279 18.8925 11.8549 18.8785 11.8789L18.7646 11.8121C18.7783 11.7787 18.7829 11.7549 18.7737 11.731C18.7646 11.7072 18.7464 11.6833 18.7146 11.6642C18.6894 11.6453 18.659 11.6353 18.628 11.6356C18.6206 11.6361 18.6133 11.6386 18.607 11.6428C18.6006 11.6469 18.5953 11.6527 18.5916 11.6595C18.5825 11.6738 18.5825 11.6881 18.5871 11.7072C18.5916 11.7263 18.6189 11.7644 18.6645 11.8121C18.71 11.8599 18.7419 11.898 18.7555 11.9267C18.7738 11.9566 18.7835 11.9913 18.7835 12.0268C18.7835 12.0624 18.7738 12.0971 18.7555 12.127C18.7359 12.1603 18.7074 12.1869 18.6736 12.2034C18.6394 12.2198 18.6013 12.2248 18.5643 12.2177C18.5174 12.2094 18.4726 12.1916 18.4322 12.1652C18.3734 12.1323 18.328 12.078 18.3047 12.0125C18.2871 11.9488 18.2937 11.8805 18.3229 11.8217ZM17.6763 11.6404L18.0087 11.0679L18.4095 11.3303L18.3548 11.4257L18.0634 11.2348L17.9905 11.3637L18.2637 11.5402L18.2046 11.6356L17.9313 11.4591L17.8403 11.6165L18.1454 11.8074L18.0907 11.9028L17.6763 11.6404ZM16.7337 10.8293L16.7838 10.7339L17.0297 10.8627L16.9159 11.1013C16.8795 11.1108 16.8339 11.1156 16.7793 11.1108C16.7268 11.1047 16.6759 11.0886 16.629 11.0631C16.5739 11.035 16.5268 10.9922 16.4924 10.939C16.4611 10.8897 16.4452 10.8313 16.4469 10.7721C16.4492 10.7104 16.4648 10.65 16.4924 10.5955C16.5198 10.5381 16.5605 10.4889 16.6108 10.4524C16.6589 10.4175 16.7162 10.3992 16.7747 10.3999C16.8203 10.3999 16.8658 10.4142 16.9204 10.4476C16.9933 10.481 17.0388 10.5287 17.0616 10.5812C17.0853 10.6333 17.0901 10.6926 17.0753 10.7482L16.9523 10.71C16.9598 10.6781 16.9566 10.6444 16.9432 10.6146C16.9296 10.586 16.9068 10.5669 16.8704 10.5478C16.8491 10.5351 16.8256 10.5273 16.8012 10.5248C16.7769 10.5223 16.7524 10.5253 16.7292 10.5335C16.6837 10.5478 16.6427 10.5908 16.6108 10.6575C16.5789 10.7243 16.5653 10.7864 16.5789 10.8388C16.5852 10.8637 16.5966 10.8869 16.6124 10.9067C16.6281 10.9264 16.6478 10.9424 16.67 10.9534C16.6928 10.9677 16.7201 10.9772 16.7474 10.9772C16.7746 10.9815 16.8022 10.9815 16.8294 10.9772L16.8658 10.9009L16.7337 10.8293ZM12.6264 9.76536L12.7175 9.0974L12.9087 9.1308L12.9588 9.59837L13.1364 9.16897L13.3277 9.1976L13.2366 9.85601L13.1137 9.83692L13.1911 9.31687L12.9907 9.81784L12.8678 9.79875L12.8177 9.25962L12.7448 9.78444L12.6264 9.76536ZM11.9844 9.68425L12.0436 9.0163L12.5126 9.06401L12.5035 9.17851L12.162 9.14512L12.1483 9.28825L12.4671 9.32164L12.4534 9.43615L12.1346 9.40275L12.121 9.58405L12.4762 9.61745L12.4671 9.73196L11.9844 9.68425Z" fill="#309E3A"/>
<path d="M9.85851 9.26918C9.85851 9.19761 9.87217 9.14513 9.89038 9.09742C9.90634 9.06349 9.92793 9.03279 9.95413 9.00677C9.97749 8.98209 10.0054 8.96261 10.0361 8.94951C10.0816 8.9352 10.1272 8.92566 10.1727 8.92566C10.2683 8.92566 10.3412 8.96383 10.4004 9.02108C10.4286 9.05755 10.4495 9.09954 10.462 9.1446C10.4745 9.18966 10.4783 9.23687 10.4732 9.28349C10.4732 9.38845 10.4414 9.47433 10.3822 9.53636C10.3517 9.56582 10.3158 9.58826 10.2765 9.60223C10.2373 9.6162 10.1957 9.62139 10.1545 9.61747C10.1138 9.6179 10.0734 9.60966 10.0359 9.59326C9.99828 9.57686 9.96428 9.55263 9.93592 9.52204C9.87925 9.45177 9.85142 9.36087 9.85851 9.26918Z" fill="#309E3A"/>
<path d="M9.99023 9.2692C9.99023 9.34077 10.0039 9.39802 10.0358 9.44096C10.0676 9.47913 10.1086 9.50298 10.1633 9.50298C10.1869 9.50472 10.2106 9.5009 10.2327 9.49183C10.2547 9.48275 10.2746 9.46863 10.2908 9.4505C10.3226 9.41233 10.3363 9.35508 10.3409 9.27397C10.3409 9.19763 10.3318 9.14038 10.2953 9.10221C10.2805 9.08298 10.2618 9.06744 10.2405 9.05672C10.2192 9.04599 10.196 9.04034 10.1724 9.04019C10.1484 9.03939 10.1246 9.0441 10.1026 9.05399C10.0805 9.06388 10.0608 9.07871 10.0449 9.09744C10.0084 9.13561 9.99479 9.19286 9.99023 9.2692Z" fill="#F7FFFF"/>
<path d="M10.6094 9.61265L10.6185 8.9447H10.8917C10.96 8.9447 11.0055 8.95424 11.0374 8.96856C11.0693 8.9781 11.0921 9.00196 11.1103 9.03058C11.1285 9.05921 11.1376 9.09738 11.1376 9.14032C11.1379 9.18621 11.1217 9.23054 11.0921 9.26436C11.0584 9.2974 11.0151 9.31758 10.9691 9.32162L11.0374 9.37887C11.0556 9.39795 11.0784 9.43612 11.1057 9.4886L11.1831 9.62219H11.0283L10.9372 9.46952L10.8735 9.3741C10.8624 9.36097 10.8483 9.3511 10.8325 9.34547C10.8118 9.33914 10.7903 9.33593 10.7687 9.33593H10.7414V9.61265H10.6094Z" fill="#309E3A"/>
<path d="M10.7461 9.23096H10.8372C10.9009 9.23096 10.9419 9.23096 10.9556 9.22142C10.9692 9.22142 10.9829 9.20711 10.992 9.19757C11.0011 9.18802 11.0056 9.16417 11.0056 9.14985C11.0056 9.12123 11.0011 9.10214 10.9874 9.0926C10.9783 9.07829 10.9601 9.06875 10.9419 9.06398H10.8508L10.7461 9.0592V9.23096Z" fill="white"/>
<path d="M11.3385 8.97815L11.5753 8.99246C11.6254 8.99246 11.6664 8.99723 11.6937 9.00678C11.7291 9.02025 11.7606 9.04329 11.7848 9.07357C11.811 9.10693 11.8297 9.14608 11.8394 9.18808C11.8531 9.23102 11.8576 9.2835 11.8531 9.34552C11.853 9.39422 11.8453 9.44258 11.8303 9.48865C11.8121 9.53637 11.7848 9.57453 11.7529 9.60316C11.7264 9.62606 11.6952 9.64238 11.6618 9.65087C11.6345 9.66041 11.5935 9.66041 11.548 9.66041L11.3066 9.6461L11.3385 8.97815Z" fill="#309E3A"/>
<path d="M11.4622 9.09741L11.4395 9.54112H11.6125C11.6353 9.54112 11.6535 9.53158 11.6671 9.51727C11.6808 9.50295 11.6945 9.48387 11.7036 9.45524C11.7127 9.42662 11.7218 9.38368 11.7218 9.3312L11.7172 9.21192C11.7107 9.18676 11.6982 9.16376 11.6808 9.14512C11.6657 9.12919 11.6468 9.11767 11.6261 9.11173C11.5917 9.10369 11.5567 9.0989 11.5214 9.09741H11.4622Z" fill="white"/>
<path d="M14.4629 10.1709L14.6132 9.52203L14.8135 9.56974L14.9592 9.61746C14.9911 9.63654 15.0184 9.66517 15.0321 9.70811C15.0503 9.74627 15.0503 9.78921 15.0412 9.8417C15.0321 9.87986 15.0184 9.91326 14.9957 9.93712C14.979 9.95807 14.9581 9.97491 14.9345 9.98646C14.9108 9.998 14.8851 10.004 14.8591 10.0039C14.8272 10.0039 14.7816 9.99437 14.7224 9.98006L14.645 9.9562L14.5904 10.2043L14.4629 10.1709Z" fill="#309E3A"/>
<path d="M14.7083 9.66516L14.6719 9.84646L14.7402 9.86555C14.7857 9.87509 14.8221 9.88463 14.8404 9.87986C14.8581 9.87728 14.8746 9.86902 14.8876 9.8562C14.9007 9.84339 14.9096 9.82665 14.9132 9.80829C14.9132 9.78444 14.9132 9.76535 14.9041 9.74627C14.8941 9.72688 14.878 9.7117 14.8586 9.70333L14.7721 9.67947L14.7129 9.66516H14.7083Z" fill="white"/>
<path d="M15.0547 10.357L15.2687 9.72717L15.5192 9.82259C15.5875 9.84645 15.6284 9.87031 15.6558 9.88939C15.6785 9.91325 15.6967 9.9371 15.7013 9.97527C15.7058 10.0134 15.7104 10.0468 15.7013 10.085C15.6831 10.1327 15.6558 10.1661 15.6193 10.19C15.5829 10.2091 15.5374 10.2138 15.4827 10.2043C15.5009 10.2281 15.5192 10.252 15.5283 10.2806L15.5647 10.4094L15.592 10.5573L15.4508 10.5049L15.4053 10.3331C15.397 10.2943 15.3864 10.256 15.3734 10.2186C15.3674 10.2038 15.358 10.1907 15.3461 10.1804C15.337 10.1661 15.3188 10.1566 15.2869 10.147L15.2642 10.1375L15.1731 10.4047L15.0547 10.357Z" fill="#309E3A"/>
<path d="M15.3014 10.0373L15.3879 10.0707C15.4471 10.0945 15.4836 10.1041 15.5018 10.1041C15.5154 10.1041 15.5291 10.1041 15.5428 10.0897C15.5564 10.0802 15.5655 10.0659 15.5701 10.0468C15.5792 10.0277 15.5792 10.0086 15.5701 9.98956C15.5634 9.97107 15.5504 9.95579 15.5337 9.94662L15.4426 9.91322L15.3515 9.87982L15.2969 10.0373H15.3014Z" fill="white"/>
<path d="M15.8004 10.3331C15.8161 10.2772 15.8424 10.2253 15.8778 10.1804C15.9008 10.1516 15.9286 10.1274 15.9598 10.1088C15.988 10.0921 16.0188 10.0808 16.0508 10.0754C16.0964 10.0754 16.1419 10.0754 16.192 10.0945C16.2327 10.1051 16.2708 10.1246 16.3038 10.1517C16.3367 10.1789 16.3638 10.213 16.3833 10.252C16.4197 10.3283 16.4197 10.419 16.3924 10.5239C16.3698 10.6141 16.3142 10.6913 16.2375 10.7386C16.1692 10.7816 16.0873 10.7863 16.0008 10.7577C15.9602 10.7469 15.9222 10.7273 15.8892 10.7002C15.8563 10.673 15.8292 10.639 15.8095 10.6003C15.7913 10.5585 15.7811 10.5135 15.7795 10.4676C15.7779 10.4218 15.785 10.376 15.8004 10.3331Z" fill="#309E3A"/>
<path d="M15.9275 10.3713C15.9093 10.4428 15.9048 10.5049 15.9275 10.5526C15.9503 10.6003 15.9822 10.6289 16.0323 10.648C16.0778 10.6623 16.1233 10.6575 16.1689 10.6289C16.2144 10.6051 16.2417 10.5526 16.2645 10.4762C16.2873 10.4047 16.2873 10.3474 16.2645 10.2997C16.2555 10.2771 16.2419 10.2568 16.2246 10.2403C16.2072 10.2238 16.1867 10.2115 16.1643 10.2043C16.1419 10.1962 16.1181 10.1933 16.0945 10.1957C16.0709 10.1982 16.0481 10.206 16.0277 10.2186C15.9822 10.2472 15.9503 10.2949 15.9275 10.3713Z" fill="white"/>
<path d="M17.0449 11.2635L17.3364 10.6719L17.5777 10.8007C17.6232 10.8236 17.6647 10.8542 17.7006 10.8913C17.7234 10.9152 17.7371 10.9438 17.7371 10.982C17.7371 11.0202 17.7371 11.0536 17.7189 11.087C17.7013 11.1299 17.6687 11.164 17.6278 11.1824C17.5822 11.1919 17.5367 11.1919 17.4866 11.1728C17.5048 11.2015 17.5139 11.2301 17.523 11.2539C17.5322 11.2826 17.5367 11.3255 17.5413 11.3875L17.5504 11.5402L17.4138 11.4686L17.3955 11.2921C17.3934 11.2521 17.3888 11.2123 17.3819 11.1728C17.3788 11.155 17.3709 11.1384 17.3591 11.1251L17.3045 11.0917L17.2817 11.0774L17.1588 11.3255L17.0449 11.2635Z" fill="#309E3A"/>
<path d="M17.3281 10.982L17.4146 11.0297C17.4693 11.0584 17.5057 11.0774 17.5194 11.0774C17.533 11.0774 17.5513 11.0774 17.5649 11.0679C17.5786 11.0631 17.5877 11.0488 17.5968 11.0297C17.6059 11.0106 17.6104 10.9916 17.6059 10.9725C17.6003 10.9535 17.5891 10.9368 17.574 10.9248C17.5474 10.9076 17.52 10.8917 17.4921 10.8771L17.401 10.8293L17.3281 10.982Z" fill="white"/>
<path d="M19.4036 12.4849C19.433 12.4358 19.4718 12.3936 19.5174 12.3608C19.548 12.3403 19.582 12.3257 19.6176 12.3179C19.6506 12.3108 19.6847 12.3108 19.7178 12.3179C19.7633 12.3274 19.8043 12.3465 19.8453 12.3751C19.8807 12.3982 19.9111 12.4289 19.9347 12.465C19.9582 12.5011 19.9743 12.542 19.9819 12.585C19.9955 12.6662 19.9728 12.7568 19.9181 12.8475C19.8724 12.9263 19.7987 12.9829 19.7132 13.0049C19.6724 13.0141 19.6303 13.0142 19.5895 13.0052C19.5486 12.9961 19.5101 12.9782 19.4764 12.9524C19.441 12.9293 19.4105 12.8987 19.387 12.8625C19.3635 12.8264 19.3474 12.7855 19.3398 12.7425C19.3261 12.6566 19.3489 12.5707 19.4036 12.4849Z" fill="#309E3A"/>
<path d="M19.5176 12.5612C19.4721 12.6232 19.4584 12.6805 19.4675 12.733C19.4709 12.7571 19.4791 12.7803 19.4917 12.8008C19.5042 12.8214 19.5208 12.8389 19.5404 12.8522C19.5859 12.8856 19.6314 12.8952 19.677 12.8809C19.7225 12.8665 19.768 12.8332 19.809 12.7664C19.85 12.6996 19.8682 12.6423 19.8591 12.5946C19.8546 12.5469 19.8272 12.5039 19.7863 12.4706C19.7453 12.4372 19.6952 12.4324 19.6496 12.4467C19.6041 12.4562 19.5586 12.4944 19.513 12.5612H19.5176Z" fill="white"/>
<path d="M13.7422 9.89896L13.8469 9.4314L14.1748 9.5125L14.1611 9.58884L13.9198 9.53159L13.897 9.63655L14.1201 9.68904L14.1019 9.77014L13.8788 9.71289L13.8515 9.84171L14.1019 9.90373L14.0837 9.98007L13.7422 9.89896Z" fill="#309E3A"/>
</g>
<defs>
<clipPath id="clip0_332_228">
<rect width="29.1429" height="22.9012" fill="white" transform="translate(0 0.14209)"/>
</clipPath>
</defs>
</svg>
