<svg width="45" height="45" viewBox="0 0 45 45" fill="none" xmlns="http://www.w3.org/2000/svg">
<path d="M15.0043 17.6554C14.272 16.9232 14.272 15.736 15.0043 15.0038C15.7365 14.2715 16.9237 14.2715 17.6559 15.0038L22.5114 19.8593L27.3562 15.0145C28.0884 14.2823 29.2756 14.2823 30.0078 15.0145C30.74 15.7467 30.74 16.9339 30.0078 17.6661L25.163 22.5109L30.008 27.3557C30.7402 28.0881 30.7402 29.2751 30.008 30.0075C29.2756 30.7397 28.0886 30.7397 27.3562 30.0075L22.5114 25.1625L17.6668 30.0071C16.9345 30.7393 15.7474 30.7393 15.0151 30.0071C14.2829 29.275 14.2829 28.0877 15.0151 27.3555L19.8597 22.5109L15.0043 17.6554Z" fill="#F5F7E4"/>
<path fill-rule="evenodd" clip-rule="evenodd" d="M43.125 7.5C43.125 4.39341 40.6067 1.875 37.5 1.875H7.5C4.39341 1.875 1.875 4.39341 1.875 7.5V37.5C1.875 40.6067 4.39341 43.125 7.5 43.125H37.5C40.6067 43.125 43.125 40.6067 43.125 37.5V7.5ZM39.375 7.5C39.375 6.46448 38.5356 5.625 37.5 5.625H7.5C6.46448 5.625 5.625 6.46448 5.625 7.5V37.5C5.625 38.5356 6.46448 39.375 7.5 39.375H37.5C38.5356 39.375 39.375 38.5356 39.375 37.5V7.5Z" fill="#F5F7E4"/>
</svg>
