<svg width="45" height="45" viewBox="0 0 45 45" fill="none" xmlns="http://www.w3.org/2000/svg">
<path d="M35.0996 5.97601H29.6996C27.7113 5.97601 26.0996 7.58779 26.0996 9.57601V14.976C26.0996 16.9642 27.7113 18.576 29.6996 18.576H35.0996C37.0879 18.576 38.6996 16.9642 38.6996 14.976V9.57601C38.6996 7.58779 37.0879 5.97601 35.0996 5.97601Z" stroke="#F5F7E4" stroke-width="4" stroke-linecap="round" stroke-linejoin="round"/>
<path d="M15.3008 5.97601H9.90078C7.91256 5.97601 6.30078 7.58779 6.30078 9.57601V14.976C6.30078 16.9642 7.91256 18.576 9.90078 18.576H15.3008C17.289 18.576 18.9008 16.9642 18.9008 14.976V9.57601C18.9008 7.58779 17.289 5.97601 15.3008 5.97601Z" stroke="#F5F7E4" stroke-width="4" stroke-linecap="round" stroke-linejoin="round"/>
<path d="M35.0996 25.776H29.6996C27.7113 25.776 26.0996 27.3877 26.0996 29.376V34.776C26.0996 36.7643 27.7113 38.376 29.6996 38.376H35.0996C37.0879 38.376 38.6996 36.7643 38.6996 34.776V29.376C38.6996 27.3877 37.0879 25.776 35.0996 25.776Z" stroke="#F5F7E4" stroke-width="4" stroke-linecap="round" stroke-linejoin="round"/>
<path d="M15.3008 25.776H9.90078C7.91256 25.776 6.30078 27.3877 6.30078 29.376V34.776C6.30078 36.7643 7.91256 38.376 9.90078 38.376H15.3008C17.289 38.376 18.9008 36.7643 18.9008 34.776V29.376C18.9008 27.3877 17.289 25.776 15.3008 25.776Z" stroke="#F5F7E4" stroke-width="4" stroke-linecap="round" stroke-linejoin="round"/>
</svg>
