<svg width="28" height="28" viewBox="0 0 28 28" fill="none" xmlns="http://www.w3.org/2000/svg">
<path d="M13.9993 9.33348L4.66602 18.6668V23.3335H9.33268L18.666 14.0001M13.9993 9.33348L17.346 5.98671L17.3481 5.98473C17.8087 5.52403 18.0395 5.29328 18.3055 5.20685C18.5399 5.13072 18.7922 5.13072 19.0266 5.20685C19.2924 5.29322 19.5229 5.52371 19.9829 5.98375L22.0127 8.01351C22.4747 8.47554 22.7058 8.70665 22.7924 8.97304C22.8686 9.20735 22.8685 9.45975 22.7924 9.69407C22.7059 9.96026 22.4752 10.191 22.0138 10.6524L22.0127 10.6534L18.666 14.0001M13.9993 9.33348L18.666 14.0001" stroke="#22291C" stroke-width="3" stroke-linecap="round" stroke-linejoin="round"/>
</svg>
